<svg width="17" height="14" viewBox="0 0 17 14" fill="none" xmlns="http://www.w3.org/2000/svg">
<path fill-rule="evenodd" clip-rule="evenodd" d="M15 0H1.66667C0.75 0 0.00833333 0.75 0.00833333 1.66667L0 11.6667C0 12.5833 0.75 13.3333 1.66667 13.3333H15C15.9167 13.3333 16.6667 12.5833 16.6667 11.6667V1.66667C16.6667 0.75 15.9167 0 15 0ZM14.6667 3.54167L8.775 7.225C8.50833 7.39167 8.15833 7.39167 7.89167 7.225L2 3.54167C1.79167 3.40833 1.66667 3.18333 1.66667 2.94167C1.66667 2.38333 2.275 2.05 2.75 2.34167L8.33333 5.83333L13.9167 2.34167C14.3917 2.05 15 2.38333 15 2.94167C15 3.18333 14.875 3.40833 14.6667 3.54167Z" fill="white"/>
</svg>
