<svg width="15" height="13" viewBox="0 0 15 13" fill="none" xmlns="http://www.w3.org/2000/svg">
<path fill-rule="evenodd" clip-rule="evenodd" d="M13.728 3.04C13.656 2.672 13.328 2.4 12.944 2.4H1.456C1.072 2.4 0.744 2.672 0.672 3.04L0 6.4V7.2C0 7.64 0.36 8 0.8 8V12C0.8 12.44 1.16 12.8 1.6 12.8H8C8.44 12.8 8.8 12.44 8.8 12V8H12V12C12 12.44 12.36 12.8 12.8 12.8C13.24 12.8 13.6 12.44 13.6 12V8C14.04 8 14.4 7.64 14.4 7.2V6.4L13.728 3.04ZM7.2 11.2H2.4V8H7.2V11.2ZM1.6 1.6H12.8C13.24 1.6 13.6 1.24 13.6 0.8C13.6 0.36 13.24 0 12.8 0H1.6C1.16 0 0.8 0.36 0.8 0.8C0.8 1.24 1.16 1.6 1.6 1.6Z" fill="white"/>
</svg>
