<svg width="17" height="17" viewBox="0 0 17 17" fill="none" xmlns="http://www.w3.org/2000/svg">
<path fill-rule="evenodd" clip-rule="evenodd" d="M8.33333 0C3.73333 0 0 3.73333 0 8.33333C0 12.9333 3.73333 16.6667 8.33333 16.6667C12.9333 16.6667 16.6667 12.9333 16.6667 8.33333C16.6667 3.73333 12.9333 0 8.33333 0ZM7.5 14.9417C4.20833 14.5333 1.66667 11.7333 1.66667 8.33333C1.66667 7.81667 1.73333 7.325 1.84167 6.84167L5.83333 10.8333V11.6667C5.83333 12.5833 6.58333 13.3333 7.5 13.3333V14.9417ZM13.25 12.825C13.0333 12.15 12.4167 11.6667 11.6667 11.6667H10.8333V9.16667C10.8333 8.70833 10.4583 8.33333 10 8.33333H5V6.66667H6.66667C7.125 6.66667 7.5 6.29167 7.5 5.83333V4.16667H9.16667C10.0833 4.16667 10.8333 3.41667 10.8333 2.5V2.15833C13.275 3.15 15 5.54167 15 8.33333C15 10.0667 14.3333 11.6417 13.25 12.825Z" fill="white"/>
</svg>
